PathFileType	4	(X/Y/Z)	C:\Users\°ÂÌØÂü\Desktop\20210112\bx_n_5_902-Unnamed.trc
DataRate	CameraRate	NumFrames	NumMarkers	Units	OrigDataRate	OrigDataStartFrame	OrigNumFrames
50.00	50.00	       4	0	mm	50.00	409	       545
Frame#	Time	
		

409	8.160	-715.28088	156.45241	219.07846				-730.74683	281.97931	877.42474	-610.67682	-5.73860	805.63306	-640.83789	246.07867	1065.84619	-734.78656	272.09589	746.27460	-759.14081	252.88640	643.26215	-627.91229	233.36420	795.18585	-757.96460	250.09451	575.89563	-681.38562	12.20008	523.04565	-700.03217	211.01796	537.35699	-792.98651	259.00244	500.68915	-793.23047	36.82605	173.56729	-720.87134	67.78377	218.21918	-648.37183	-68.46928	161.15915	-825.18951	86.80223	1066.90344	-770.51202	229.87383	203.71884	-605.69781	-73.95755	157.55875	-882.67053	296.19333	144.58157	-715.22150	149.03839	575.60651	-600.17108	27.34191	168.52260	-548.29926	-23.78018	162.64137	-517.94067	-72.95628	143.24066	-676.04333	173.91963	160.82071	-593.60822	219.34364	174.35071	-624.22461	307.33609	157.81471	-528.00775	304.09531	146.49472	-630.97327	127.92988	1842.07300	-633.21509	300.56754	1536.44141	-686.16473	-69.54815	877.30975	-796.90906	181.16992	182.74219	-557.06799	255.13033	164.54268	-660.37909	298.85022	156.43968	-563.36200	117.33850	1346.06226	-710.93555	70.89430	573.62286	-772.47717	-47.72840	488.67398	-760.26929	-21.65605	206.90405	-875.85034	-78.68372	141.27127	-613.01031	-56.31343	1535.77026	-707.35437	-60.74851	761.75708	-726.54523	-37.66964	619.63879	-733.11774	-35.53070	570.50446	-675.29694	52.18127	161.12373	-615.35272	-0.66575	1053.11047	
410	8.180	-715.02234	156.31114	218.96396				-726.72125	282.79553	877.67212	-607.71954	-5.50281	805.97760	-637.30896	246.23680	1066.30872	-731.50220	271.82748	746.03851	-756.75531	252.90701	643.03436	-624.27979	233.77663	795.66498	-756.16510	250.13718	575.94397	-679.55951	12.39342	522.93878	-698.16284	211.23618	537.19751	-791.69257	259.17996	500.63486	-793.29291	36.93053	173.72722	-720.87134	67.78377	218.21918	-648.38544	-68.33482	160.96054	-821.97253	87.33376	1066.15698	-770.29364	229.60141	203.80734	-605.75439	-73.92113	157.54076	-882.58478	296.15625	144.63521	-713.01849	148.81805	575.46362	-600.13922	27.50697	168.54301	-548.28607	-23.80586	162.64055	-517.97961	-72.87731	143.39223	-676.07098	173.72433	160.54958	-593.45770	219.27115	174.30820	-624.22534	307.08936	157.86171	-527.98315	304.03311	146.29248	-638.31769	127.62399	1843.27356	-637.54382	300.71896	1537.95947	-682.97833	-69.54288	877.33350	-796.82678	181.01817	182.82466	-556.98584	255.17046	164.55356	-660.71387	299.07190	156.32777	-565.37006	117.08145	1348.13782	-708.60754	71.21130	573.54468	-771.61322	-47.49314	488.71472	-760.21460	-21.66394	207.03545	-875.85034	-78.68372	141.27127	-617.73291	-56.38997	1537.06653	-704.50024	-60.13558	761.50049	-724.60541	-37.57178	619.89020	-731.54498	-35.20780	570.37628	-675.02588	52.28455	161.14265	-611.81537	0.03399	1053.03113	
411	8.200	-714.88684	156.19434	219.19826				-723.07739	282.76297	877.18481	-604.89447	-5.67155	805.64502	-633.61102	246.21051	1066.03137	-728.89087	271.82428	746.15021	-754.18518	253.09781	643.34991	-621.04773	233.39474	794.97522	-753.94312	250.74921	576.64441	-678.15027	12.74823	522.42871	-696.57880	211.30116	537.06195	-789.80377	258.94009	500.59088	-793.16467	37.01992	173.62679	-720.91705	68.01974	217.92436	-648.26172	-68.37869	161.11157	-818.67346	87.82414	1065.35596	-770.29193	229.48125	203.93361	-605.96838	-73.91287	157.51624	-882.62158	296.14899	144.58987	-711.05664	148.90567	575.50671	-600.36536	27.44172	168.62085	-548.24646	-23.84622	162.69154	-517.90356	-72.84502	143.25996	-675.90607	173.83942	160.44382	-593.29480	219.26535	174.15967	-624.02832	307.04501	157.81747	-527.93707	304.43152	146.63451	-645.48932	127.83522	1844.55103	-641.32776	300.83420	1539.14526	-679.77405	-69.42783	876.90045	-796.46643	181.08014	182.78233	-556.90930	255.08928	164.57715	-660.70789	298.95151	156.34947	-566.78528	116.93135	1349.91516	-707.21912	71.48122	573.72522	-769.59888	-47.05341	489.04092	-760.19116	-21.64062	207.10353	-875.85522	-78.73365	141.22168	-622.88812	-56.74080	1538.48120	-702.14404	-60.29521	761.95825	-722.33765	-37.07009	619.66937	-729.45721	-34.76947	570.25140	-675.17493	52.36612	161.06656	-609.09503	-0.02355	1054.71729	
412	8.220	-714.99481	156.24637	218.77977				-719.72375	283.59967	877.40961	-602.34546	-5.28108	805.60535	-629.92578	246.44037	1066.20557	-725.39111	271.82492	746.11359	-751.99524	253.29077	643.25323	-618.10364	233.12314	794.46930	-751.48309	250.71719	576.56793	-676.55396	13.04376	522.64185	-694.65747	211.34329	537.21100	-788.47540	259.54950	501.16541	-793.10608	37.11212	173.68735	-720.85382	68.00411	217.81570	-648.33899	-68.35270	161.18068	-815.75885	88.29735	1064.90393	-770.05206	229.33357	204.02704	-605.96887	-74.09651	157.56425	-882.57434	296.15549	144.64362	-711.20203	148.28914	575.88556	-600.30060	27.35762	168.63309	-547.95856	-24.14052	162.69601	-517.90356	-72.84502	143.25996	-676.11810	173.64655	160.30392	-593.36230	219.29900	174.23308	-624.30121	307.36078	157.93251	-527.82098	304.19839	146.50636	-652.45227	126.81956	1845.45203	-645.28375	300.32895	1540.24695	-677.05847	-69.47481	877.42792	-797.15509	180.47202	183.10902	-556.96472	255.13884	164.55000	-660.49591	298.87390	156.49625	-568.01569	116.77206	1350.96252	-705.22345	71.66550	573.48749	-768.77203	-46.60485	489.14651	-760.08350	-21.74353	207.18091	-875.93561	-78.84620	141.20265	-627.54639	-57.06685	1539.65527	-699.43115	-59.64859	761.39307	-720.62317	-36.35472	619.58185	-727.83081	-34.73472	570.44934	-675.14557	52.15782	160.90544	-606.45874	1.02112	1054.02136	
